<svg xmlns="http://www.w3.org/2000/svg" width="100%" height="100%" viewBox="400 150 1200 1200" preserveAspectRatio="xMidYMid meet">
    <g id="outer-wrapper" data-padding="20" transform="matrix(1.4348574708245647,0,0,1.4348574708245647,-434.85747082456464,-326.1431031184236)">
        <g id="inner-wrapper" transform="matrix(0.9744897959183674,0,0,0.9744897959183674,10,10)">
            <path fill="#1ebbd7" d="M1015.9162303664922 367.3467277486911A392.025 392.025 0 1 0 1015.9162303664922 1151.396727748691A392.025 392.025 0 1 0 1015.9162303664922 367.3467277486911 "></path>
            <rect width="73.704" height="67.8" x="47.82610074020581" y="16.079548654991868" fill="none" rx="0" ry="0" transform="translate(412.67 403.03)scale(7.25)"></rect>
            <path fill="#fff" d="M788.2362303664922 900.221727748691V605.731727748691Q791.2762303664923 605.731727748691 802.1562303664923 605.511727748691Q813.0262303664923 605.3017277486911 826.5162303664922 605.3017277486911Q839.9962303664922 605.3017277486911 853.4762303664922 605.081727748691Q866.9662303664923 604.861727748691 875.6662303664923 604.861727748691Q926.1262303664923 604.861727748691 952.4362303664923 624.871727748691Q978.7562303664922 644.881727748691 978.7562303664922 681.421727748691Q978.7562303664922 702.731727748691 967.0162303664922 719.701727748691Q955.2662303664922 736.661727748691 934.3862303664923 747.101727748691Q960.4862303664922 757.111727748691 974.1862303664923 775.381727748691Q987.8962303664923 793.651727748691 987.8962303664923 817.571727748691Q987.8962303664923 854.981727748691 959.6162303664922 877.821727748691Q931.3462303664923 900.6517277486911 873.9262303664923 900.6517277486911H848.6962303664923Q835.2162303664923 900.6517277486911 823.0362303664922 900.441727748691Q810.8562303664922 900.221727748691 801.4962303664922 900.221727748691ZM839.9962303664922 768.421727748691V863.251727748691H877.4062303664923Q906.9862303664922 863.251727748691 919.8162303664923 849.981727748691T932.6462303664923 816.701727748691Q932.6462303664923 807.571727748691 929.8262303664923 798.871727748691Q926.9962303664922 790.1717277486911 920.0362303664922 783.211727748691T901.5462303664922 772.111727748691Q890.0162303664922 767.981727748691 872.6162303664922 767.981727748691H854.1362303664922Q846.0862303664923 767.981727748691 839.9962303664922 768.421727748691M839.9962303664922 642.271727748691V731.011727748691H873.4862303664922Q900.8962303664923 731.011727748691 912.6362303664922 718.391727748691Q924.3862303664922 705.781727748691 924.3862303664922 687.511727748691Q924.3862303664922 679.241727748691 921.7762303664922 670.981727748691Q919.1662303664922 662.711727748691 912.8562303664921 656.1917277486909Q906.5462303664922 649.661727748691 895.8962303664922 645.751727748691Q885.2362303664922 641.841727748691 869.1362303664922 641.841727748691H852.3962303664922Q845.2162303664923 641.841727748691 839.9962303664922 642.271727748691M1207.1362303664923 900.2117277486909V766.231727748691H1085.7762303664922V900.211727748691H1034.0162303664924V605.721727748691H1085.7762303664922V728.391727748691H1207.1362303664923V605.721727748691H1258.9062303664923V900.211727748691Z" paint-order="stroke"></path>
        </g>
    </g>
</svg>